<svg xmlns="http://www.w3.org/2000/svg" version="1.1" xmlns:xlink="http://www.w3.org/1999/xlink" viewBox="0 0 200 200"><rect width="200" height="200" fill="url('#gradient')"></rect><defs><linearGradient id="gradient" gradientTransform="rotate(56 0.5 0.5)"><stop offset="0%" stop-color="#6900ff"></stop><stop offset="100%" stop-color="#6900ff"></stop></linearGradient></defs><g><g fill="#ffffff" transform="matrix(6.227263409634438,0,0,6.227263409634438,4.316886100477433,143.93400652015174)" stroke="#000000" stroke-width="0.45"><path d="M12.95-14.22L12.95 0L9.54 0L4.50-8.85L4.50 0L1.07 0L1.07-14.22L4.50-14.22L9.53-5.37L9.53-14.22L12.95-14.22ZM18.54-14.22L18.54-2.64L24.51-2.64L24.51 0L15.12 0L15.12-14.22L18.54-14.22ZM27.84-3.19L27.84-3.19Q28.62-3.19 29.14-2.73Q29.66-2.27 29.66-1.54Q29.66-0.82 29.14-0.36Q28.62 0.11 27.84 0.11L27.84 0.11Q27.05 0.11 26.54-0.36Q26.03-0.83 26.03-1.54Q26.03-2.26 26.54-2.72Q27.05-3.19 27.84-3.19Z"></path></g></g></svg>